<svg width="147" height="61" id='logo' viewBox="0 0 147 61" fill="none" xmlns="http://www.w3.org/2000/svg">
<path d="M69.2207 60.5126C112.177 60.5126 147 46.9664 147 30.2563C147 13.5462 112.177 0 69.2207 0C39.0557 0 12.9015 6.67988 0 16.4445C8.33629 11.6925 19.9261 7.80303 33.0191 5.82565C35.2791 5.48432 37.5132 5.21065 39.7112 5.00214C47.2537 3.81722 55.4394 3.1682 63.9932 3.1682C101.613 3.1682 132.11 15.7215 132.11 31.2068C132.11 46.6921 101.613 59.2453 63.9932 59.2453C55.8635 59.2453 48.0664 58.6591 40.8378 57.5837C40.1056 57.5114 39.3693 57.4327 38.6293 57.3474C32.8436 56.6803 27.367 55.6733 22.4044 54.42C35.4292 58.2447 51.6441 60.5126 69.2207 60.5126Z" fill="#2C43A1"></path><path d="M19.4797 36.4345L11.084 15.2075H21.2222L26.4498 27.5635L33.4198 15.2075H54.8052L57.1813 31.8406L66.0523 15.2075H78.7251L72.0718 46.8895H62.5672L65.577 32.4742L58.1318 46.8895H50.5281L48.6272 32.4742L45.6174 46.8895H36.1128L42.2908 18.2173C40.8123 20.4879 36.7147 26.8982 32.1525 34.3751C26.4498 43.7213 25.0241 44.6718 22.3311 46.4143C20.1767 47.8083 14.7802 47.312 12.3513 46.8895V39.1274H16.7867C20.0817 39.1274 19.9549 37.3321 19.4797 36.4345Z" fill="#2C43A1"></path><path d="M75.0816 46.8895L81.7349 15.2075H91.2395L89.3385 24.5537L98.2095 15.2075H110.407L94.8829 30.5733L104.071 46.8895H93.1404L86.9624 35.0088L84.5862 46.8895H75.0816Z" fill="#2C43A1"></path><defs><mask id="mask0" mask-type="alpha" maskUnits="userSpaceOnUse" x="11" y="15" width="100" height="33"><path d="M19.4797 36.4345L11.084 15.2075H21.2222L26.4498 27.5635L33.4198 15.2075H54.8052L57.1813 31.8406L66.0523 15.2075H78.7251L72.0718 46.8895H62.5672L65.577 32.4742L58.1318 46.8895H50.5281L48.6272 32.4742L45.6174 46.8895H36.1128L42.2908 18.2173C40.8123 20.4879 36.7147 26.8982 32.1525 34.3751C26.4498 43.7213 25.0241 44.6718 22.3311 46.4143C20.1767 47.8083 14.7802 47.312 12.3513 46.8895V39.1274H16.7867C20.0817 39.1274 19.9549 37.3321 19.4797 36.4345Z" fill="#264796"></path><path d="M75.0816 46.8895L81.7349 15.2075H91.2395L89.3385 24.5537L98.2095 15.2075H110.407L94.8829 30.5733L104.071 46.8895H93.1404L86.9624 35.0088L84.5862 46.8895H75.0816Z" fill="#264796"></path></mask></defs><g mask="url(#mask0)"><linearGradient id="paint0_linear" x1="58.4486" y1="30.4146" x2="58.4486" y2="44.9883" gradientUnits="userSpaceOnUse"><stop stop-color="#91C1F1"></stop><stop offset="1" stop-color="#91C1F1" stop-opacity="0"></stop></linearGradient><rect x="11.084" y="30.4146" width="94.7292" height="19.326" fill="url(#paint0_linear)"></rect></g>
</svg>